<?xml version="1.0" encoding="UTF-8" standalone="no"?>
<!-- Created with Inkscape (http://www.inkscape.org/) -->

<svg
   version="1.1"
   id="svg695"
   xml:space="preserve"
   width="803.68292"
   height="363.33813"
   viewBox="0 0 803.68292 363.33813"
   sodipodi:docname="GeometricUnsharpness.svg"
   inkscape:version="1.1 (c4e8f9e, 2021-05-24)"
   xmlns:inkscape="http://www.inkscape.org/namespaces/inkscape"
   xmlns:sodipodi="http://sodipodi.sourceforge.net/DTD/sodipodi-0.dtd"
   xmlns="http://www.w3.org/2000/svg"
   xmlns:svg="http://www.w3.org/2000/svg"><defs
     id="defs699"><linearGradient
       x1="622.72913"
       y1="319.98215"
       x2="622.72913"
       y2="159.86342"
       gradientUnits="userSpaceOnUse"
       gradientTransform="matrix(3.3422484,0,0,0.3831462,-1452.3784,102.46224)"
       spreadMethod="pad"
       id="linearGradient721"><stop
         style="stop-opacity:1;stop-color:#000000"
         offset="0"
         id="stop717" /><stop
         style="stop-opacity:1;stop-color:#ffffff"
         offset="1"
         id="stop719" /></linearGradient><linearGradient
       x1="622.72913"
       y1="319.98215"
       x2="622.72913"
       y2="159.86342"
       gradientUnits="userSpaceOnUse"
       gradientTransform="matrix(3.3422484,0,0,0.3831462,-1452.3783,-398.02987)"
       spreadMethod="pad"
       id="linearGradient741"><stop
         style="stop-opacity:1;stop-color:#000000"
         offset="0"
         id="stop737" /><stop
         style="stop-opacity:1;stop-color:#ffffff"
         offset="1"
         id="stop739" /></linearGradient><linearGradient
       x1="146.42857"
       y1="376.95163"
       x2="142.14285"
       y2="410.16592"
       gradientUnits="userSpaceOnUse"
       gradientTransform="matrix(1.0101236,0,0,1,-1.3473909,0)"
       spreadMethod="pad"
       id="linearGradient893"><stop
         style="stop-opacity:1;stop-color:#7896b4"
         offset="0"
         id="stop889" /><stop
         style="stop-opacity:1;stop-color:#ffffff"
         offset="1"
         id="stop891" /></linearGradient><linearGradient
       x1="146.42857"
       y1="376.95163"
       x2="142.14285"
       y2="410.16592"
       gradientUnits="userSpaceOnUse"
       gradientTransform="matrix(-1.0202475,0,0,-1,290.80829,478.30366)"
       spreadMethod="pad"
       id="linearGradient911"><stop
         style="stop-opacity:1;stop-color:#7896b4"
         offset="0"
         id="stop907" /><stop
         style="stop-opacity:1;stop-color:#ffffff"
         offset="1"
         id="stop909" /></linearGradient><radialGradient
       fx="24.265633"
       fy="256.88974"
       cx="24.265633"
       cy="256.88974"
       r="8.3740158"
       gradientUnits="userSpaceOnUse"
       gradientTransform="matrix(1.9612438,-8.26e-6,-2.9e-7,13.955053,-30.21194,-3328.0204)"
       spreadMethod="pad"
       id="radialGradient1087"><stop
         style="stop-opacity:1;stop-color:#00ff00"
         offset="0"
         id="stop1083" /><stop
         style="stop-opacity:1;stop-color:#ffffff"
         offset="1"
         id="stop1085" /></radialGradient></defs><sodipodi:namedview
     id="namedview697"
     pagecolor="#ffffff"
     bordercolor="#666666"
     borderopacity="1.0"
     inkscape:pageshadow="2"
     inkscape:pageopacity="0.0"
     inkscape:pagecheckerboard="0"
     showgrid="false"
     inkscape:zoom="1.4570423"
     inkscape:cx="196.63122"
     inkscape:cy="189.768"
     inkscape:window-width="1384"
     inkscape:window-height="1081"
     inkscape:window-x="0"
     inkscape:window-y="25"
     inkscape:window-maximized="0"
     inkscape:current-layer="g701" /><g
     id="g701"
     inkscape:groupmode="layer"
     inkscape:label="GeometricUnsharpness"
     transform="matrix(1.0666666,0,0,1.0666666,0,-0.6618609)"><g
       id="g703"><g
         id="g705"
         transform="translate(-17.216535,-62.007849)"><g
           id="g707"><g
             id="g709"><g
               id="g715"><path
                 d="m 620.07874,137.30315 h 17.71653 v 119.58661 h -17.71653 z"
                 style="fill:url(#linearGradient721);stroke:none"
                 id="path723" /></g></g></g><g
           id="g725"
           transform="scale(1,-1)"><g
             id="g727"><g
               id="g729"><g
                 id="g735"><path
                   d="m 620.07874,-363.18896 h 17.71653 v 119.5866 h -17.71653 z"
                   style="fill:url(#linearGradient741);stroke:none"
                   id="path743" /></g></g></g></g><g
           id="g745"><path
             d="m 717.51969,119.58661 c 0,0 0,26.5748 0,44.29134 0,17.71653 -22.14567,38.43307 -22.14567,56.1496 0,17.71654 0,32.43307 0,54.57874 0,22.14567 17.71653,39.64567 17.71653,61.79134 0,22.14567 0,31.22047 0,31.22047"
             style="fill:none;stroke:#000000;stroke-width:1;stroke-linecap:butt;stroke-linejoin:miter;stroke-miterlimit:4;stroke-dasharray:none;stroke-opacity:1"
             id="path747" /></g><g
           id="g749"
           transform="rotate(-60)"><g
             id="g751"><path
               d="m 197.26028,609.6413 h 1.08497 v 8.01904 h -1.08497 v -8.01904"
               style="fill:#000000;fill-opacity:1;fill-rule:nonzero;stroke:none"
               id="path753" /></g><g
             id="g755"><path
               d="m 205.14505,612.7995 c 0.24706,-0.44401 0.54247,-0.77164 0.88623,-0.98291 0.34374,-0.21126 0.74837,-0.31689 1.21387,-0.3169 0.62662,10e-6 1.11001,0.22023 1.45019,0.66065 0.34016,0.43685 0.51025,1.0599 0.51026,1.86914 v 3.63086 h -0.99366 v -3.59863 c 0,-0.5765 -0.10205,-1.00439 -0.30615,-1.28369 -0.20411,-0.2793 -0.51563,-0.41894 -0.93457,-0.41895 -0.51205,10e-6 -0.91667,0.17009 -1.21387,0.51025 -0.2972,0.34018 -0.4458,0.80388 -0.4458,1.39112 v 3.3999 h -0.99365 v -3.59863 c 0,-0.58008 -0.10205,-1.00797 -0.30615,-1.28369 -0.20411,-0.2793 -0.51921,-0.41894 -0.94531,-0.41895 -0.50489,10e-6 -0.90593,0.17188 -1.20313,0.51562 -0.2972,0.34018 -0.4458,0.80209 -0.4458,1.38575 v 3.3999 h -0.99365 v -6.01563 h 0.99365 v 0.93457 c 0.22558,-0.3688 0.49593,-0.64094 0.81104,-0.8164 0.3151,-0.17545 0.68928,-0.26318 1.12255,-0.26319 0.43685,10e-6 0.80745,0.11101 1.11182,0.33301 0.30794,0.22201 0.53531,0.54428 0.68213,0.9668"
               style="fill:#000000;fill-opacity:1;fill-rule:nonzero;stroke:none"
               id="path757" /></g><g
             id="g759"><path
               d="m 213.91605,614.63641 c -0.79851,1e-5 -1.35173,0.0913 -1.65967,0.27393 -0.30795,0.18262 -0.46192,0.49414 -0.46192,0.93457 0,0.35091 0.11459,0.63021 0.34375,0.83789 0.23275,0.2041 0.54785,0.30615 0.94532,0.30615 0.54784,0 0.98648,-0.19336 1.31591,-0.58008 0.33301,-0.39029 0.49951,-0.90771 0.49952,-1.55224 v -0.22022 h -0.98291 m 1.97119,-0.4082 v 3.43213 h -0.98828 v -0.91309 c -0.22559,0.36524 -0.50668,0.63558 -0.84327,0.81104 -0.33659,0.17187 -0.74837,0.25781 -1.23535,0.25781 -0.61588,0 -1.10644,-0.17187 -1.47168,-0.51562 -0.36165,-0.34733 -0.54248,-0.81104 -0.54248,-1.39112 0,-0.67675 0.22559,-1.18701 0.67676,-1.53076 0.45475,-0.34375 1.13151,-0.51562 2.03027,-0.51562 h 1.38575 v -0.0967 c -10e-6,-0.45475 -0.1504,-0.80566 -0.45118,-1.05274 -0.2972,-0.25064 -0.71615,-0.37597 -1.25683,-0.37597 -0.34375,0 -0.67855,0.0412 -1.0044,0.12353 -0.32584,0.0824 -0.63916,0.2059 -0.93994,0.37061 v -0.91309 c 0.36165,-0.13964 0.71257,-0.24348 1.05274,-0.31152 0.34016,-0.0716 0.67138,-0.10742 0.99365,-0.10743 0.87011,10e-6 1.52001,0.2256 1.94971,0.67676 0.42968,0.45118 0.64452,1.1351 0.64453,2.05176"
               style="fill:#000000;fill-opacity:1;fill-rule:nonzero;stroke:none"
               id="path761" /></g><g
             id="g763"><path
               d="m 221.88675,614.5827 c -1e-5,-0.71614 -0.14861,-1.27115 -0.4458,-1.66504 -0.29363,-0.39387 -0.7072,-0.59081 -1.24072,-0.59082 -0.52995,1e-5 -0.94353,0.19695 -1.24073,0.59082 -0.29362,0.39389 -0.44043,0.9489 -0.44043,1.66504 0,0.71257 0.14681,1.26579 0.44043,1.65967 0.2972,0.39388 0.71078,0.59082 1.24073,0.59082 0.53352,0 0.94709,-0.19694 1.24072,-0.59082 0.29719,-0.39388 0.44579,-0.9471 0.4458,-1.65967 m 0.98828,2.33106 c -1e-5,1.02409 -0.22738,1.78499 -0.68213,2.28271 -0.45476,0.5013 -1.15121,0.75195 -2.08935,0.75196 -0.34734,-10e-6 -0.67497,-0.0269 -0.98291,-0.0806 -0.30795,-0.0501 -0.60694,-0.12891 -0.89698,-0.23633 v -0.96143 c 0.29004,0.15756 0.5765,0.27393 0.85938,0.34913 0.28287,0.0752 0.57112,0.11279 0.86474,0.11279 0.64811,0 1.1333,-0.17009 1.45557,-0.51025 0.32226,-0.33659 0.48339,-0.84685 0.4834,-1.53077 v -0.48877 c -0.20411,0.3545 -0.4655,0.61947 -0.78418,0.79493 -0.31869,0.17545 -0.70004,0.26318 -1.14404,0.26318 -0.73764,0 -1.33204,-0.28109 -1.78321,-0.84326 -0.45117,-0.56218 -0.67675,-1.30697 -0.67675,-2.23438 0,-0.93098 0.22558,-1.67756 0.67675,-2.23974 0.45117,-0.56217 1.04557,-0.84326 1.78321,-0.84327 0.444,1e-5 0.82535,0.0877 1.14404,0.26319 0.31868,0.17546 0.58007,0.44043 0.78418,0.79492 v -0.91309 h 0.98828 v 5.26905"
               style="fill:#000000;fill-opacity:1;fill-rule:nonzero;stroke:none"
               id="path765" /></g><g
             id="g767"><path
               d="m 230.05618,614.40546 v 0.48339 h -4.54394 c 0.043,0.68035 0.24707,1.19955 0.6123,1.55762 0.36881,0.3545 0.88086,0.53174 1.53614,0.53174 0.37955,0 0.74657,-0.0466 1.10107,-0.13965 0.35807,-0.0931 0.71256,-0.23274 1.06348,-0.41894 v 0.93457 c -0.3545,0.15039 -0.71795,0.26497 -1.09034,0.34375 -0.3724,0.0788 -0.75016,0.11816 -1.1333,0.11816 -0.95964,0 -1.72054,-0.2793 -2.28271,-0.83789 -0.5586,-0.55859 -0.83789,-1.31413 -0.83789,-2.2666 0,-0.9847 0.26497,-1.7653 0.79492,-2.3418 0.53353,-0.58007 1.25146,-0.87011 2.15381,-0.87012 0.80924,10e-6 1.4484,0.2614 1.91748,0.78418 0.47265,0.51922 0.70898,1.22641 0.70898,2.12159 m -0.98828,-0.29004 c -0.007,-0.54069 -0.15935,-0.97217 -0.45654,-1.29444 -0.29363,-0.32226 -0.68392,-0.48339 -1.1709,-0.48339 -0.55144,0 -0.99365,0.15576 -1.32666,0.46728 -0.32943,0.31153 -0.51921,0.75017 -0.56934,1.31592 l 3.52344,-0.005"
               style="fill:#000000;fill-opacity:1;fill-rule:nonzero;stroke:none"
               id="path769" /></g><g
             id="g771" /><g
             id="g773"><path
               d="m 235.18021,611.64471 h 0.98828 v 6.01563 h -0.98828 v -6.01563 m 0,-2.34179 h 0.98828 v 1.25146 h -0.98828 v -1.25146"
               style="fill:#000000;fill-opacity:1;fill-rule:nonzero;stroke:none"
               id="path775" /></g><g
             id="g777"><path
               d="m 243.23148,614.02948 v 3.63086 h -0.98829 v -3.59863 c 0,-0.56934 -0.111,-0.99544 -0.333,-1.27832 -0.22201,-0.28288 -0.55502,-0.42431 -0.99903,-0.42432 -0.53353,10e-6 -0.95426,0.17009 -1.2622,0.51025 -0.30795,0.34018 -0.46192,0.80388 -0.46192,1.39112 v 3.3999 h -0.99365 v -6.01563 h 0.99365 v 0.93457 c 0.23633,-0.36164 0.51383,-0.63199 0.83252,-0.81103 0.32226,-0.17903 0.69287,-0.26855 1.11182,-0.26856 0.69107,10e-6 1.21386,0.21485 1.56836,0.64454 0.35448,0.42611 0.53173,1.05453 0.53174,1.88525"
               style="fill:#000000;fill-opacity:1;fill-rule:nonzero;stroke:none"
               id="path779" /></g><g
             id="g781"><path
               d="m 246.19095,609.93671 v 1.708 h 2.03564 v 0.76807 h -2.03564 v 3.26563 c 0,0.49056 0.0662,0.80566 0.19873,0.94531 0.13606,0.13965 0.40999,0.20947 0.82178,0.20947 h 1.01513 v 0.82715 h -1.01513 c -0.7627,0 -1.28907,-0.14144 -1.57911,-0.42432 -0.29004,-0.28645 -0.43505,-0.80566 -0.43505,-1.55761 v -3.26563 h -0.7251 v -0.76807 h 0.7251 v -1.708 h 0.99365"
               style="fill:#000000;fill-opacity:1;fill-rule:nonzero;stroke:none"
               id="path783" /></g><g
             id="g785"><path
               d="m 254.67728,614.40546 v 0.48339 h -4.54395 c 0.043,0.68035 0.24707,1.19955 0.61231,1.55762 0.36881,0.3545 0.88085,0.53174 1.53613,0.53174 0.37955,0 0.74658,-0.0466 1.10107,-0.13965 0.35807,-0.0931 0.71256,-0.23274 1.06348,-0.41894 v 0.93457 c -0.3545,0.15039 -0.71794,0.26497 -1.09033,0.34375 -0.3724,0.0788 -0.75017,0.11816 -1.1333,0.11816 -0.95964,0 -1.72055,-0.2793 -2.28272,-0.83789 -0.55859,-0.55859 -0.83789,-1.31413 -0.83789,-2.2666 0,-0.9847 0.26497,-1.7653 0.79492,-2.3418 0.53353,-0.58007 1.25147,-0.87011 2.15381,-0.87012 0.80924,10e-6 1.4484,0.2614 1.91748,0.78418 0.47265,0.51922 0.70898,1.22641 0.70899,2.12159 m -0.98828,-0.29004 c -0.007,-0.54069 -0.15935,-0.97217 -0.45655,-1.29444 -0.29362,-0.32226 -0.68392,-0.48339 -1.1709,-0.48339 -0.55143,0 -0.99365,0.15576 -1.32666,0.46728 -0.32943,0.31153 -0.5192,0.75017 -0.56933,1.31592 l 3.52344,-0.005"
               style="fill:#000000;fill-opacity:1;fill-rule:nonzero;stroke:none"
               id="path787" /></g><g
             id="g789"><path
               d="m 261.29984,614.02948 v 3.63086 h -0.98829 v -3.59863 c 0,-0.56934 -0.111,-0.99544 -0.333,-1.27832 -0.22201,-0.28288 -0.55502,-0.42431 -0.99903,-0.42432 -0.53353,10e-6 -0.95426,0.17009 -1.2622,0.51025 -0.30795,0.34018 -0.46192,0.80388 -0.46192,1.39112 v 3.3999 h -0.99365 v -6.01563 h 0.99365 v 0.93457 c 0.23633,-0.36164 0.51383,-0.63199 0.83252,-0.81103 0.32226,-0.17903 0.69287,-0.26855 1.11182,-0.26856 0.69107,10e-6 1.21386,0.21485 1.56836,0.64454 0.35448,0.42611 0.53173,1.05453 0.53174,1.88525"
               style="fill:#000000;fill-opacity:1;fill-rule:nonzero;stroke:none"
               id="path791" /></g><g
             id="g793"><path
               d="m 267.11673,611.82196 v 0.93457 c -0.2793,-0.14322 -0.56934,-0.25065 -0.87012,-0.32226 -0.30078,-0.0716 -0.61231,-0.10742 -0.93457,-0.10743 -0.49056,1e-5 -0.85937,0.0752 -1.10644,0.22559 -0.24349,0.15039 -0.36524,0.37598 -0.36524,0.67676 0,0.22917 0.0877,0.40999 0.26319,0.54248 0.17545,0.12891 0.52815,0.25244 1.0581,0.3706 l 0.33838,0.0752 c 0.70182,0.15039 1.19954,0.36345 1.49316,0.63916 0.2972,0.27214 0.4458,0.65348 0.44581,1.14404 -1e-5,0.5586 -0.22201,1.00082 -0.66602,1.32666 -0.44043,0.32585 -1.04737,0.48877 -1.8208,0.48877 -0.32227,0 -0.65886,-0.0322 -1.00977,-0.0967 -0.34733,-0.0609 -0.71435,-0.15397 -1.10107,-0.2793 v -1.0205 c 0.36523,0.18978 0.7251,0.33301 1.07959,0.42968 0.35449,0.0931 0.7054,0.13965 1.05273,0.13965 0.46549,0 0.82357,-0.0788 1.07422,-0.23633 0.25065,-0.16113 0.37597,-0.38671 0.37598,-0.67675 -10e-6,-0.26856 -0.0913,-0.47445 -0.27393,-0.61768 -0.17904,-0.14323 -0.57471,-0.28108 -1.18701,-0.41357 l -0.34375,-0.0806 c -0.61231,-0.1289 -1.05452,-0.32584 -1.32666,-0.59082 -0.27214,-0.26855 -0.4082,-0.63558 -0.4082,-1.10107 0,-0.56575 0.20052,-1.0026 0.60156,-1.31055 0.40104,-0.30794 0.97038,-0.46191 1.70801,-0.46192 0.36523,10e-6 0.70898,0.0269 1.03125,0.0806 0.32226,0.0537 0.61946,0.13428 0.8916,0.2417"
               style="fill:#000000;fill-opacity:1;fill-rule:nonzero;stroke:none"
               id="path795" /></g><g
             id="g797"><path
               d="m 269.0181,611.64471 h 0.98828 v 6.01563 h -0.98828 v -6.01563 m 0,-2.34179 h 0.98828 v 1.25146 h -0.98828 v -1.25146"
               style="fill:#000000;fill-opacity:1;fill-rule:nonzero;stroke:none"
               id="path799" /></g><g
             id="g801"><path
               d="m 273.04642,609.93671 v 1.708 h 2.03564 v 0.76807 h -2.03564 v 3.26563 c 0,0.49056 0.0662,0.80566 0.19873,0.94531 0.13606,0.13965 0.40999,0.20947 0.82178,0.20947 h 1.01513 v 0.82715 h -1.01513 c -0.7627,0 -1.28907,-0.14144 -1.57911,-0.42432 -0.29004,-0.28645 -0.43506,-0.80566 -0.43506,-1.55761 v -3.26563 h -0.72509 v -0.76807 h 0.72509 v -1.708 h 0.99366"
               style="fill:#000000;fill-opacity:1;fill-rule:nonzero;stroke:none"
               id="path803" /></g><g
             id="g805"><path
               d="m 278.89017,618.21893 c -0.2793,0.71615 -0.55144,1.18343 -0.81641,1.40186 -0.26498,0.21842 -0.61947,0.32763 -1.06348,0.32764 h -0.78955 v -0.82715 h 0.58008 c 0.27214,0 0.4834,-0.0645 0.63379,-0.19336 0.15039,-0.12891 0.31689,-0.43327 0.49951,-0.91309 l 0.17725,-0.45117 -2.43311,-5.91895 h 1.04737 l 1.87988,4.70508 1.87988,-4.70508 h 1.04737 l -2.64258,6.57422"
               style="fill:#000000;fill-opacity:1;fill-rule:nonzero;stroke:none"
               id="path807" /></g></g><g
           id="g809"
           transform="rotate(-60)"><g
             id="g811"><path
               d="m 244.41187,691.82739 h 1.08496 v 8.01905 h -1.08496 v -8.01905"
               style="fill:#000000;fill-opacity:1;fill-rule:nonzero;stroke:none"
               id="path813" /></g><g
             id="g815"><path
               d="m 252.61353,696.21558 v 3.63086 h -0.98829 v -3.59864 c 0,-0.56933 -0.111,-0.99544 -0.333,-1.27832 -0.22201,-0.28287 -0.55502,-0.42431 -0.99903,-0.42431 -0.53353,0 -0.95426,0.17009 -1.2622,0.51025 -0.30795,0.34017 -0.46192,0.80388 -0.46192,1.39111 v 3.39991 h -0.99365 v -6.01563 h 0.99365 v 0.93457 c 0.23633,-0.36165 0.51383,-0.63199 0.83252,-0.81103 0.32226,-0.17903 0.69287,-0.26855 1.11182,-0.26856 0.69107,10e-6 1.21386,0.21485 1.56836,0.64453 0.35448,0.42611 0.53173,1.05453 0.53174,1.88526"
               style="fill:#000000;fill-opacity:1;fill-rule:nonzero;stroke:none"
               id="path817" /></g><g
             id="g819"><path
               d="m 255.573,692.1228 v 1.70801 h 2.03564 v 0.76807 H 255.573 v 3.26562 c 0,0.49056 0.0662,0.80567 0.19873,0.94531 0.13606,0.13965 0.40999,0.20948 0.82178,0.20948 h 1.01513 v 0.82715 h -1.01513 c -0.7627,0 -1.28907,-0.14144 -1.57911,-0.42432 -0.29004,-0.28646 -0.43506,-0.80566 -0.43505,-1.55762 v -3.26562 h -0.7251 v -0.76807 h 0.7251 v -1.70801 h 0.99365"
               style="fill:#000000;fill-opacity:1;fill-rule:nonzero;stroke:none"
               id="path821" /></g><g
             id="g823"><path
               d="m 264.05933,696.59155 v 0.4834 h -4.54395 c 0.043,0.68034 0.24707,1.19955 0.61231,1.55762 0.36881,0.35449 0.88085,0.53174 1.53613,0.53174 0.37955,0 0.74658,-0.0466 1.10107,-0.13965 0.35807,-0.0931 0.71256,-0.23275 1.06348,-0.41895 v 0.93457 c -0.3545,0.15039 -0.71794,0.26498 -1.09033,0.34375 -0.3724,0.0788 -0.75017,0.11817 -1.1333,0.11817 -0.95964,0 -1.72055,-0.2793 -2.28272,-0.83789 -0.55859,-0.5586 -0.83789,-1.31413 -0.83789,-2.2666 0,-0.9847 0.26497,-1.7653 0.79492,-2.3418 0.53353,-0.58007 1.25146,-0.87011 2.15381,-0.87012 0.80924,10e-6 1.4484,0.2614 1.91748,0.78418 0.47265,0.51921 0.70898,1.2264 0.70899,2.12158 m -0.98829,-0.29004 c -0.007,-0.54068 -0.15934,-0.97216 -0.45654,-1.29443 -0.29362,-0.32226 -0.68392,-0.48339 -1.1709,-0.4834 -0.55143,10e-6 -0.99365,0.15577 -1.32666,0.46729 -0.32943,0.31152 -0.5192,0.75016 -0.56933,1.31591 l 3.52343,-0.005"
               style="fill:#000000;fill-opacity:1;fill-rule:nonzero;stroke:none"
               id="path825" /></g><g
             id="g827"><path
               d="m 270.68188,696.21558 v 3.63086 h -0.98828 v -3.59864 c 0,-0.56933 -0.111,-0.99544 -0.333,-1.27832 -0.22201,-0.28287 -0.55502,-0.42431 -0.99903,-0.42431 -0.53353,0 -0.95426,0.17009 -1.2622,0.51025 -0.30795,0.34017 -0.46192,0.80388 -0.46192,1.39111 v 3.39991 h -0.99365 v -6.01563 h 0.99365 v 0.93457 c 0.23633,-0.36165 0.51383,-0.63199 0.83252,-0.81103 0.32226,-0.17903 0.69287,-0.26855 1.11182,-0.26856 0.69107,10e-6 1.21386,0.21485 1.56836,0.64453 0.35448,0.42611 0.53173,1.05453 0.53173,1.88526"
               style="fill:#000000;fill-opacity:1;fill-rule:nonzero;stroke:none"
               id="path829" /></g><g
             id="g831"><path
               d="m 276.49878,694.00806 v 0.93457 c -0.2793,-0.14323 -0.56934,-0.25065 -0.87012,-0.32227 -0.30078,-0.0716 -0.61231,-0.10742 -0.93457,-0.10742 -0.49056,0 -0.85938,0.0752 -1.10644,0.22559 -0.24349,0.15039 -0.36524,0.37598 -0.36524,0.67675 0,0.22917 0.0877,0.41 0.26319,0.54248 0.17545,0.12891 0.52815,0.25245 1.0581,0.37061 l 0.33838,0.0752 c 0.70182,0.1504 1.19954,0.36345 1.49316,0.63916 0.2972,0.27214 0.4458,0.65349 0.4458,1.14405 0,0.55859 -0.22201,1.00081 -0.66601,1.32666 -0.44043,0.32584 -1.04737,0.48877 -1.8208,0.48877 -0.32227,0 -0.65886,-0.0322 -1.00977,-0.0967 -0.34733,-0.0609 -0.71435,-0.15397 -1.10107,-0.2793 v -1.02051 c 0.36523,0.18978 0.7251,0.33301 1.07959,0.42969 0.35449,0.0931 0.7054,0.13965 1.05273,0.13965 0.46549,0 0.82357,-0.0788 1.07422,-0.23633 0.25065,-0.16113 0.37597,-0.38672 0.37598,-0.67676 -10e-6,-0.26855 -0.0913,-0.47444 -0.27393,-0.61767 -0.17904,-0.14323 -0.57471,-0.28109 -1.18701,-0.41358 l -0.34375,-0.0806 c -0.61231,-0.12891 -1.05453,-0.32585 -1.32666,-0.59082 -0.27214,-0.26855 -0.4082,-0.63558 -0.4082,-1.10108 0,-0.56575 0.20052,-1.0026 0.60156,-1.31054 0.40104,-0.30794 0.97038,-0.46191 1.70801,-0.46192 0.36523,10e-6 0.70898,0.0269 1.03125,0.0806 0.32226,0.0537 0.61946,0.13428 0.8916,0.2417"
               style="fill:#000000;fill-opacity:1;fill-rule:nonzero;stroke:none"
               id="path833" /></g><g
             id="g835"><path
               d="m 278.40015,693.83081 h 0.98828 v 6.01563 h -0.98828 v -6.01563 m 0,-2.3418 h 0.98828 v 1.25147 h -0.98828 v -1.25147"
               style="fill:#000000;fill-opacity:1;fill-rule:nonzero;stroke:none"
               id="path837" /></g><g
             id="g839"><path
               d="m 282.42847,692.1228 v 1.70801 h 2.03564 v 0.76807 h -2.03564 v 3.26562 c -1e-5,0.49056 0.0662,0.80567 0.19873,0.94531 0.13606,0.13965 0.40999,0.20948 0.82177,0.20948 h 1.01514 v 0.82715 h -1.01514 c -0.76269,0 -1.28906,-0.14144 -1.5791,-0.42432 -0.29004,-0.28646 -0.43506,-0.80566 -0.43506,-1.55762 v -3.26562 h -0.72509 v -0.76807 h 0.72509 v -1.70801 h 0.99366"
               style="fill:#000000;fill-opacity:1;fill-rule:nonzero;stroke:none"
               id="path841" /></g><g
             id="g843"><path
               d="m 288.27222,700.40503 c -0.2793,0.71614 -0.55144,1.18343 -0.81641,1.40185 -0.26498,0.21843 -0.61947,0.32764 -1.06348,0.32764 h -0.78955 v -0.82715 h 0.58008 c 0.27214,0 0.4834,-0.0644 0.63379,-0.19336 0.15039,-0.1289 0.31689,-0.43327 0.49951,-0.91308 l 0.17725,-0.45117 -2.43311,-5.91895 h 1.04737 l 1.87988,4.70508 1.87988,-4.70508 h 1.04736 l -2.64257,6.57422"
               style="fill:#000000;fill-opacity:1;fill-rule:nonzero;stroke:none"
               id="path845" /></g><g
             id="g847" /><g
             id="g849"><path
               d="m 296.73706,698.94409 v 3.19043 h -0.99365 v -8.30371 h 0.99365 v 0.91309 c 0.20768,-0.35807 0.46907,-0.62304 0.78418,-0.79493 0.31868,-0.17545 0.69824,-0.26317 1.13867,-0.26318 0.73047,10e-6 1.32308,0.29005 1.77783,0.87012 0.45833,0.58008 0.6875,1.34278 0.6875,2.28808 0,0.94532 -0.22917,1.70801 -0.6875,2.28809 -0.45475,0.58008 -1.04736,0.87012 -1.77783,0.87012 -0.44043,0 -0.81999,-0.0859 -1.13867,-0.25782 -0.31511,-0.17545 -0.5765,-0.44221 -0.78418,-0.80029 m 3.36231,-2.1001 c -1e-5,-0.72688 -0.1504,-1.29622 -0.45118,-1.708 -0.2972,-0.41536 -0.70719,-0.62305 -1.22998,-0.62305 -0.52279,0 -0.93457,0.20769 -1.23535,0.62305 -0.2972,0.41178 -0.4458,0.98112 -0.4458,1.708 0,0.72689 0.1486,1.29802 0.4458,1.71338 0.30078,0.41179 0.71256,0.61768 1.23535,0.61768 0.52279,0 0.93278,-0.20589 1.22998,-0.61768 0.30078,-0.41536 0.45117,-0.98649 0.45118,-1.71338"
               style="fill:#000000;fill-opacity:1;fill-rule:nonzero;stroke:none"
               id="path851" /></g><g
             id="g853"><path
               d="m 306.24927,694.75464 c -0.11101,-0.0644 -0.23275,-0.111 -0.36524,-0.13965 -0.12891,-0.0322 -0.27214,-0.0483 -0.42968,-0.0483 -0.5586,10e-6 -0.98829,0.18262 -1.28907,0.54785 -0.2972,0.36166 -0.4458,0.88266 -0.4458,1.56299 v 3.16895 h -0.99365 v -6.01563 h 0.99365 v 0.93457 c 0.20768,-0.36523 0.47803,-0.63557 0.81104,-0.81103 0.333,-0.17903 0.73762,-0.26855 1.21386,-0.26856 0.068,10e-6 0.14323,0.005 0.22559,0.0161 0.0824,0.007 0.17366,0.0197 0.27393,0.0376 l 0.005,1.01514"
               style="fill:#000000;fill-opacity:1;fill-rule:nonzero;stroke:none"
               id="path855" /></g><g
             id="g857"><path
               d="m 309.39136,694.52368 c -0.52995,10e-6 -0.9489,0.20769 -1.25684,0.62305 -0.30794,0.41179 -0.46191,0.97754 -0.46191,1.69726 0,0.71973 0.15218,1.28728 0.45654,1.70264 0.30794,0.41179 0.72868,0.61768 1.26221,0.61768 0.52636,0 0.94352,-0.20768 1.25146,-0.62305 0.30794,-0.41536 0.46191,-0.98112 0.46192,-1.69727 -10e-6,-0.71256 -0.15398,-1.27652 -0.46192,-1.69189 -0.30794,-0.41894 -0.7251,-0.62841 -1.25146,-0.62842 m 0,-0.83789 c 0.85937,10e-6 1.53433,0.2793 2.0249,0.83789 0.49055,0.5586 0.73583,1.33204 0.73584,2.32031 -1e-5,0.98471 -0.24529,1.75814 -0.73584,2.32032 -0.49057,0.55859 -1.16553,0.83789 -2.0249,0.83789 -0.86296,0 -1.53972,-0.2793 -2.03028,-0.83789 -0.48698,-0.56218 -0.73047,-1.33561 -0.73046,-2.32032 -1e-5,-0.98827 0.24348,-1.76171 0.73046,-2.32031 0.49056,-0.55859 1.16732,-0.83788 2.03028,-0.83789"
               style="fill:#000000;fill-opacity:1;fill-rule:nonzero;stroke:none"
               id="path859" /></g><g
             id="g861"><path
               d="m 316.83032,691.48901 v 0.82178 h -0.94531 c -0.3545,10e-6 -0.60157,0.0716 -0.74121,0.21484 -0.13607,0.14324 -0.2041,0.40105 -0.2041,0.77344 v 0.53174 h 1.62744 v 0.76807 h -1.62744 v 5.24756 h -0.99366 v -5.24756 h -0.94531 v -0.76807 h 0.94531 v -0.41894 c 0,-0.66959 0.15577,-1.15657 0.46729,-1.46094 0.31152,-0.30794 0.80566,-0.46191 1.48242,-0.46192 h 0.93457"
               style="fill:#000000;fill-opacity:1;fill-rule:nonzero;stroke:none"
               id="path863" /></g><g
             id="g865"><path
               d="m 317.6521,693.83081 h 0.98828 v 6.01563 h -0.98828 v -6.01563 m 0,-2.3418 h 0.98828 v 1.25147 h -0.98828 v -1.25147"
               style="fill:#000000;fill-opacity:1;fill-rule:nonzero;stroke:none"
               id="path867" /></g><g
             id="g869"><path
               d="m 320.70288,691.48901 h 0.98828 v 8.35743 h -0.98828 v -8.35743"
               style="fill:#000000;fill-opacity:1;fill-rule:nonzero;stroke:none"
               id="path871" /></g><g
             id="g873"><path
               d="m 328.89917,696.59155 v 0.4834 h -4.54395 c 0.043,0.68034 0.24707,1.19955 0.61231,1.55762 0.36881,0.35449 0.88086,0.53174 1.53613,0.53174 0.37956,0 0.74658,-0.0466 1.10108,-0.13965 0.35806,-0.0931 0.71256,-0.23275 1.06347,-0.41895 v 0.93457 c -0.35449,0.15039 -0.71794,0.26498 -1.09033,0.34375 -0.3724,0.0788 -0.75017,0.11817 -1.1333,0.11817 -0.95964,0 -1.72054,-0.2793 -2.28271,-0.83789 -0.5586,-0.5586 -0.8379,-1.31413 -0.8379,-2.2666 0,-0.9847 0.26498,-1.7653 0.79493,-2.3418 0.53352,-0.58007 1.25146,-0.87011 2.15381,-0.87012 0.80924,10e-6 1.4484,0.2614 1.91748,0.78418 0.47265,0.51921 0.70897,1.2264 0.70898,2.12158 m -0.98828,-0.29004 c -0.007,-0.54068 -0.15935,-0.97216 -0.45654,-1.29443 -0.29363,-0.32226 -0.68393,-0.48339 -1.1709,-0.4834 -0.55144,10e-6 -0.99366,0.15577 -1.32666,0.46729 -0.32943,0.31152 -0.51921,0.75016 -0.56934,1.31591 l 3.52344,-0.005"
               style="fill:#000000;fill-opacity:1;fill-rule:nonzero;stroke:none"
               id="path875" /></g></g></g><g
         id="g877"
         transform="translate(-17.216535,-62.007849)"><g
           id="g879"><g
             id="g881"><g
               id="g887"><path
                 d="m 133.09377,274.56351 v 117.33667 c 8.92944,0.14291 14.96088,10.7372 21.92592,10.7372 l -0.27861,-128.07387 z"
                 style="fill:url(#linearGradient893);stroke:none"
                 id="path895" /></g></g></g><g
           id="g897"><g
             id="g899"><g
               id="g905"><path
                 d="M 155.01969,203.74015 V 86.403488 c -9.01894,-0.14291 -15.11082,-10.7372 -22.14567,-10.7372 l 0.2814,128.073862 z"
                 style="fill:url(#linearGradient911);stroke:none"
                 id="path913" /></g></g></g><g
           id="g915"><path
             d="M 620.82874,118.47704 V 365.95429"
             style="fill:none;stroke:#000000;stroke-width:2.5;stroke-linecap:butt;stroke-linejoin:miter;stroke-miterlimit:4;stroke-dasharray:none;stroke-opacity:1"
             id="path917" /></g></g><g
         id="g919"
         transform="translate(-17.216535,-62.007849)"><g
           id="g921"><path
             d="m 442.91339,203.74016 h 62.00787 v 88.58267 h -62.00787 z"
             style="fill:#ea8000;fill-opacity:1;fill-rule:nonzero;stroke:none"
             id="path923" /></g></g><g
         id="g925"
         transform="translate(-17.216535,-62.007849)"><g
           id="g927"><path
             d="M 92.048808,284.00687 619.0589,163.98397"
             style="fill:none;stroke:#147800;stroke-width:1.03967;stroke-linecap:butt;stroke-linejoin:miter;stroke-miterlimit:4;stroke-dasharray:none;stroke-opacity:1"
             id="path929" /></g><g
           id="g931"><path
             d="M 88.582677,203.74015 H 620.07874"
             style="fill:none;stroke:#147800;stroke-width:1;stroke-linecap:butt;stroke-linejoin:miter;stroke-miterlimit:4;stroke-dasharray:none;stroke-opacity:1"
             id="path933" /></g></g><g
         id="g935"
         transform="translate(-17.216535,-62.007849)"><g
           id="g937"><path
             d="m 71.092569,203.51372 h 62.007881 v 0"
             style="fill:none;stroke:#000000;stroke-width:0.452855;stroke-linecap:butt;stroke-linejoin:miter;stroke-miterlimit:4;stroke-dasharray:none;stroke-opacity:1"
             id="path939" /></g><g
           id="g941"><path
             d="M 71.022392,274.45004 H 133.03027"
             style="fill:none;stroke:#000000;stroke-width:0.3125;stroke-linecap:butt;stroke-linejoin:miter;stroke-miterlimit:4;stroke-dasharray:none;stroke-opacity:1"
             id="path943" /></g><g
           id="g945"><path
             d="m 76.701526,203.5839 v 70.86614 0"
             style="fill:none;stroke:#000000;stroke-width:0.3125;stroke-linecap:butt;stroke-linejoin:miter;stroke-miterlimit:4;stroke-dasharray:none;stroke-opacity:1"
             id="path947" /></g><g
           id="g949"
           transform="matrix(0,0.25,-0.25,0,76.701526,206.7089)"><g
             id="g951"><path
               d="M 0,0 5,-5 -12.5,0 5,5 Z"
               style="fill:#000000;fill-opacity:1;fill-rule:evenodd;stroke:none"
               id="path953" /></g><g
             id="g955"><path
               d="M 0,0 5,-5 -12.5,0 5,5 Z"
               style="fill:none;stroke:#000000;stroke-width:1.25;stroke-linecap:butt;stroke-linejoin:miter;stroke-miterlimit:4;stroke-dasharray:none;stroke-opacity:1"
               id="path957" /></g></g><g
           id="g959"
           transform="matrix(0,-0.25,0.25,0,76.701526,271.32504)"><g
             id="g961"><path
               d="M 0,0 5,-5 -12.5,0 5,5 Z"
               style="fill:#000000;fill-opacity:1;fill-rule:evenodd;stroke:none"
               id="path963" /></g><g
             id="g965"><path
               d="M 0,0 5,-5 -12.5,0 5,5 Z"
               style="fill:none;stroke:#000000;stroke-width:1.25;stroke-linecap:butt;stroke-linejoin:miter;stroke-miterlimit:4;stroke-dasharray:none;stroke-opacity:1"
               id="path967" /></g></g><g
           id="g969"><path
             d="m 65.210381,240.06482 v 6.23584 h 1.310546 c 1.106441,0 1.915685,-0.25065 2.427735,-0.75195 0.515618,-0.5013 0.773431,-1.29264 0.773437,-2.37403 -6e-6,-1.07421 -0.257819,-1.86018 -0.773437,-2.35791 -0.51205,-0.50129 -1.321294,-0.75194 -2.427735,-0.75195 h -1.310546 m -1.084961,-0.8916 h 2.229004 c 1.554031,1e-5 2.694492,0.32406 3.421386,0.97217 0.726881,0.64453 1.090324,1.6543 1.090332,3.02929 -8e-6,1.38217 -0.365242,2.3973 -1.095703,3.04541 -0.730475,0.64812 -1.869145,0.97217 -3.416015,0.97217 H 64.12542 v -8.01904"
             style="fill:#000000;fill-opacity:1;fill-rule:nonzero;stroke:none"
             id="path971" /></g><g
           id="g973"><path
             d="m 155.01969,163.87795 v 39.8622"
             style="fill:none;stroke:#000000;stroke-width:0.3125;stroke-linecap:butt;stroke-linejoin:miter;stroke-miterlimit:4;stroke-dasharray:none;stroke-opacity:1"
             id="path975" /></g><g
           id="g977"><path
             d="M 443.41339,203.22366 V 164.05069"
             style="fill:none;stroke:#000000;stroke-width:0.328578;stroke-linecap:butt;stroke-linejoin:miter;stroke-miterlimit:4;stroke-dasharray:none;stroke-opacity:1"
             id="path979" /></g><g
           id="g981"><path
             d="m 155.01969,168.30708 h 287.8937"
             style="fill:none;stroke:#000000;stroke-width:0.25;stroke-linecap:butt;stroke-linejoin:miter;stroke-miterlimit:4;stroke-dasharray:none;stroke-opacity:1"
             id="path983" /></g><g
           id="g985"
           transform="matrix(0.2,0,0,0.2,157.51969,168.30708)"><g
             id="g987"><path
               d="M 0,0 5,-5 -12.5,0 5,5 Z"
               style="fill:#000000;fill-opacity:1;fill-rule:evenodd;stroke:none"
               id="path989" /></g><g
             id="g991"><path
               d="M 0,0 5,-5 -12.5,0 5,5 Z"
               style="fill:none;stroke:#000000;stroke-width:1.25;stroke-linecap:butt;stroke-linejoin:miter;stroke-miterlimit:4;stroke-dasharray:none;stroke-opacity:1"
               id="path993" /></g></g><g
           id="g995"
           transform="matrix(-0.2,0,0,-0.2,440.41339,168.30708)"><g
             id="g997"><path
               d="M 0,0 5,-5 -12.5,0 5,5 Z"
               style="fill:#000000;fill-opacity:1;fill-rule:evenodd;stroke:none"
               id="path999" /></g><g
             id="g1001"><path
               d="M 0,0 5,-5 -12.5,0 5,5 Z"
               style="fill:none;stroke:#000000;stroke-width:1.25;stroke-linecap:butt;stroke-linejoin:miter;stroke-miterlimit:4;stroke-dasharray:none;stroke-opacity:1"
               id="path1003" /></g></g><g
           id="g1005"><path
             d="m 278.47482,155.01968 h 1.08496 v 7.10596 h 3.90479 v 0.91309 h -4.98975 v -8.01905"
             style="fill:#000000;fill-opacity:1;fill-rule:nonzero;stroke:none"
             id="path1007" /></g><g
           id="g1009"><path
             d="m 442.54136,168.01827 h 176.90941 v 0"
             style="fill:none;stroke:#000000;stroke-width:0.25;stroke-linecap:butt;stroke-linejoin:miter;stroke-miterlimit:4;stroke-dasharray:none;stroke-opacity:1"
             id="path1011" /></g><g
           id="g1013"
           transform="matrix(0.2,0,0,0.2,445.04136,168.01827)"><g
             id="g1015"><path
               d="M 0,0 5,-5 -12.5,0 5,5 Z"
               style="fill:#000000;fill-opacity:1;fill-rule:evenodd;stroke:none"
               id="path1017" /></g><g
             id="g1019"><path
               d="M 0,0 5,-5 -12.5,0 5,5 Z"
               style="fill:none;stroke:#000000;stroke-width:1.25;stroke-linecap:butt;stroke-linejoin:miter;stroke-miterlimit:4;stroke-dasharray:none;stroke-opacity:1"
               id="path1021" /></g></g><g
           id="g1023"
           transform="matrix(-0.2,0,0,-0.2,616.95077,168.01827)"><g
             id="g1025"><path
               d="M 0,0 5,-5 -12.5,0 5,5 Z"
               style="fill:#000000;fill-opacity:1;fill-rule:evenodd;stroke:none"
               id="path1027" /></g><g
             id="g1029"><path
               d="M 0,0 5,-5 -12.5,0 5,5 Z"
               style="fill:none;stroke:#000000;stroke-width:1.25;stroke-linecap:butt;stroke-linejoin:miter;stroke-miterlimit:4;stroke-dasharray:none;stroke-opacity:1"
               id="path1031" /></g></g><g
           id="g1033"
           transform="translate(17.216535,62.007849)"><g
             id="g1035"><path
               d="m 533.836,88.78701 h 0.98828 v 8.357422 H 533.836 V 88.78701"
               style="fill:#000000;fill-opacity:1;fill-rule:nonzero;stroke:none"
               id="path1037" /></g></g><g
           id="g1039"
           transform="translate(17.216535,62.007849)"><g
             id="g1041"><path
               d="m 633.36614,101.45629 v 39.8622 0"
               style="fill:none;stroke:#000000;stroke-width:0.25;stroke-linecap:butt;stroke-linejoin:miter;stroke-miterlimit:4;stroke-dasharray:none;stroke-opacity:1"
               id="path1043" /></g><g
             id="g1045"
             transform="matrix(0,0.2,-0.2,0,633.36614,103.95629)"><g
               id="g1047"><path
                 d="M 0,0 5,-5 -12.5,0 5,5 Z"
                 style="fill:#000000;fill-opacity:1;fill-rule:evenodd;stroke:none"
                 id="path1049" /></g><g
               id="g1051"><path
                 d="M 0,0 5,-5 -12.5,0 5,5 Z"
                 style="fill:none;stroke:#000000;stroke-width:1.25;stroke-linecap:butt;stroke-linejoin:miter;stroke-miterlimit:4;stroke-dasharray:none;stroke-opacity:1"
                 id="path1053" /></g></g><g
             id="g1055"
             transform="matrix(0,-0.2,0.2,0,633.36614,138.81849)"><g
               id="g1057"><path
                 d="M 0,0 5,-5 -12.5,0 5,5 Z"
                 style="fill:#000000;fill-opacity:1;fill-rule:evenodd;stroke:none"
                 id="path1059" /></g><g
               id="g1061"><path
                 d="M 0,0 5,-5 -12.5,0 5,5 Z"
                 style="fill:none;stroke:#000000;stroke-width:1.25;stroke-linecap:butt;stroke-linejoin:miter;stroke-miterlimit:4;stroke-dasharray:none;stroke-opacity:1"
                 id="path1063" /></g></g></g><g
           id="g1065"><path
             d="m 659.40002,180.3515 v -3.25488 h 0.98829 v 8.35742 h -0.98829 v -0.90234 c -0.20768,0.35807 -0.47087,0.62483 -0.78955,0.80029 -0.3151,0.17187 -0.69466,0.25781 -1.13867,0.25781 -0.72689,0 -1.3195,-0.29004 -1.77783,-0.87011 -0.45475,-0.58008 -0.68213,-1.34278 -0.68213,-2.28809 0,-0.94531 0.22738,-1.708 0.68213,-2.28809 0.45833,-0.58007 1.05094,-0.87011 1.77783,-0.87011 0.44401,0 0.82357,0.0877 1.13867,0.26318 0.31868,0.17188 0.58187,0.43685 0.78955,0.79492 m -3.36767,2.1001 c 0,0.72689 0.1486,1.29802 0.4458,1.71338 0.30078,0.41178 0.71256,0.61767 1.23535,0.61767 0.52278,0 0.93457,-0.20589 1.23535,-0.61767 0.30078,-0.41536 0.45117,-0.98649 0.45117,-1.71338 0,-0.72689 -0.15039,-1.29622 -0.45117,-1.70801 -0.30078,-0.41536 -0.71257,-0.62304 -1.23535,-0.62305 -0.52279,1e-5 -0.93457,0.20769 -1.23535,0.62305 -0.2972,0.41179 -0.4458,0.98112 -0.4458,1.70801"
             style="fill:#000000;fill-opacity:1;fill-rule:nonzero;stroke:none"
             id="path1067" /></g></g><g
         id="g1069"
         transform="translate(-17.216535,-62.007849)"><g
           id="g1071"
           transform="matrix(2.187908,0,0,0.998202,-20.8067,-16.754639)"><g
             id="g1073"><g
               id="g1075"><g
                 id="g1081"><path
                   d="m 17.716535,124.01574 c 35.433071,124.01575 0,265.74803 0,265.74803 v 0"
                   style="fill:url(#radialGradient1087);fill-rule:evenodd;stroke:none"
                   id="path1089" /></g></g></g></g><g
           id="g1091"
           transform="rotate(-90)"><g
             id="g1093"><path
               d="m -261.65527,27.52145 v 1.058106 c -0.41179,-0.196934 -0.8003,-0.343743 -1.16553,-0.44043 -0.36524,-0.09667 -0.71794,-0.145012 -1.05811,-0.14502 -0.59082,8e-6 -1.04736,0.114591 -1.36963,0.34375 -0.31868,0.229174 -0.47802,0.55502 -0.47802,0.977539 0,0.354498 0.10563,0.623053 0.31689,0.805664 0.21484,0.179042 0.61947,0.324061 1.21387,0.435059 l 0.65527,0.134277 c 0.80924,0.153976 1.40543,0.426111 1.78858,0.816407 0.38671,0.386722 0.58007,0.905927 0.58008,1.557617 -10e-6,0.777019 -0.2614,1.366049 -0.78418,1.76709 -0.51922,0.401041 -1.28191,0.601562 -2.28809,0.601562 -0.37956,0 -0.78418,-0.04297 -1.21387,-0.128906 -0.42611,-0.08594 -0.86833,-0.213053 -1.32666,-0.381348 V 33.80563 c 0.44043,0.247071 0.87191,0.433269 1.29444,0.558593 0.42252,0.125327 0.83788,0.187989 1.24609,0.187989 0.61946,0 1.09749,-0.121744 1.43408,-0.365235 0.33658,-0.243488 0.50488,-0.590818 0.50488,-1.041992 0,-0.393877 -0.12175,-0.70182 -0.36523,-0.923828 -0.23991,-0.222002 -0.63558,-0.388506 -1.18701,-0.499512 l -0.66065,-0.128906 c -0.80924,-0.161129 -1.39469,-0.41357 -1.75634,-0.757324 -0.36166,-0.343745 -0.54249,-0.821772 -0.54248,-1.434082 -10e-6,-0.708978 0.24886,-1.267571 0.74658,-1.675781 0.5013,-0.408196 1.19059,-0.612297 2.06787,-0.612305 0.37597,8e-6 0.75911,0.03402 1.14941,0.102051 0.3903,0.06804 0.78955,0.170092 1.19776,0.306152"
               style="fill:#000000;fill-opacity:1;fill-rule:nonzero;stroke:none"
               id="path1095" /></g><g
             id="g1097"><path
               d="m -257.19189,29.954556 c -0.52996,5e-6 -0.9489,0.207687 -1.25684,0.623046 -0.30794,0.411789 -0.46192,0.977543 -0.46191,1.697266 -10e-6,0.719729 0.15217,1.287274 0.45654,1.702637 0.30794,0.411784 0.72867,0.617676 1.26221,0.617676 0.52636,0 0.94351,-0.207682 1.25146,-0.623047 0.30794,-0.415363 0.46191,-0.981118 0.46191,-1.697266 0,-0.712561 -0.15397,-1.276526 -0.46191,-1.691895 -0.30795,-0.41894 -0.7251,-0.628412 -1.25146,-0.628417 m 0,-0.837891 c 0.85937,6e-6 1.53433,0.279303 2.0249,0.837891 0.49055,0.558598 0.73583,1.332035 0.73584,2.320312 -1e-5,0.984703 -0.24529,1.758139 -0.73584,2.320313 -0.49057,0.558593 -1.16553,0.83789 -2.0249,0.83789 -0.86296,0 -1.53972,-0.279297 -2.03028,-0.83789 -0.48698,-0.562174 -0.73047,-1.33561 -0.73047,-2.320313 0,-0.988277 0.24349,-1.761714 0.73047,-2.320312 0.49056,-0.558588 1.16732,-0.837885 2.03028,-0.837891"
               style="fill:#000000;fill-opacity:1;fill-rule:nonzero;stroke:none"
               id="path1099" /></g><g
             id="g1101"><path
               d="m -252.90039,32.903286 v -3.641602 h 0.98828 v 3.604004 c 0,0.569338 0.111,0.997235 0.33301,1.283692 0.222,0.282878 0.55501,0.424317 0.99902,0.424316 0.53353,1e-6 0.95426,-0.170084 1.26221,-0.510254 0.31152,-0.340167 0.46728,-0.803871 0.46728,-1.391113 v -3.410645 h 0.98829 v 6.015625 h -0.98829 v -0.923828 c -0.23991,0.365235 -0.51921,0.63737 -0.83789,0.816407 -0.3151,0.175455 -0.68213,0.263183 -1.10107,0.263183 -0.69108,0 -1.21566,-0.214844 -1.57373,-0.644531 -0.35808,-0.429687 -0.53711,-1.058104 -0.53711,-1.885254"
               style="fill:#000000;fill-opacity:1;fill-rule:nonzero;stroke:none"
               id="path1103" /></g><g
             id="g1105"><path
               d="m -242.33008,30.185513 c -0.11101,-0.06445 -0.23275,-0.110998 -0.36523,-0.139649 -0.12891,-0.03222 -0.27214,-0.04833 -0.42969,-0.04834 -0.5586,6e-6 -0.98828,0.182623 -1.28906,0.547852 -0.29721,0.361658 -0.44581,0.882653 -0.4458,1.562988 v 3.168945 h -0.99366 v -6.015625 h 0.99366 v 0.934571 c 0.20768,-0.365229 0.47802,-0.635574 0.81103,-0.811035 0.33301,-0.179031 0.73763,-0.268549 1.21387,-0.268555 0.068,6e-6 0.14322,0.0054 0.22559,0.01611 0.0824,0.0072 0.17366,0.0197 0.27392,0.0376 l 0.005,1.015137"
               style="fill:#000000;fill-opacity:1;fill-rule:nonzero;stroke:none"
               id="path1107" /></g><g
             id="g1109"><path
               d="m -237.18994,29.492641 v 0.923829 c -0.2793,-0.153967 -0.56039,-0.26855 -0.84326,-0.34375 -0.2793,-0.07877 -0.56218,-0.118159 -0.84864,-0.118164 -0.64095,5e-6 -1.13867,0.204106 -1.49316,0.612304 -0.35449,0.404627 -0.53174,0.973962 -0.53174,1.708008 0,0.734052 0.17725,1.305177 0.53174,1.713379 0.35449,0.404623 0.85221,0.606934 1.49316,0.606934 0.28646,0 0.56934,-0.0376 0.84864,-0.112793 0.28287,-0.07878 0.56396,-0.195149 0.84326,-0.349122 v 0.913086 c -0.27572,0.128907 -0.56218,0.225586 -0.85938,0.290039 -0.29362,0.06445 -0.60693,0.09668 -0.93994,0.09668 -0.90592,0 -1.62565,-0.284668 -2.15918,-0.854004 -0.53353,-0.569334 -0.80029,-1.3374 -0.80029,-2.304199 0,-0.981116 0.26855,-1.752762 0.80566,-2.314941 0.54069,-0.562169 1.28011,-0.843256 2.21827,-0.843262 0.30435,6e-6 0.60155,0.03223 0.8916,0.09668 0.29003,0.06088 0.57112,0.153977 0.84326,0.279296"
               style="fill:#000000;fill-opacity:1;fill-rule:nonzero;stroke:none"
               id="path1111" /></g><g
             id="g1113"><path
               d="m -230.31494,32.022427 v 0.483398 h -4.54395 c 0.043,0.680341 0.24707,1.199546 0.61231,1.557617 0.36881,0.354493 0.88085,0.531739 1.53613,0.531739 0.37955,0 0.74658,-0.04655 1.10108,-0.139649 0.35806,-0.0931 0.71255,-0.232746 1.06347,-0.418945 v 0.93457 c -0.3545,0.150391 -0.71794,0.264974 -1.09033,0.34375 -0.3724,0.07878 -0.75017,0.118164 -1.1333,0.118164 -0.95964,0 -1.72054,-0.279297 -2.28272,-0.83789 -0.55859,-0.558593 -0.83789,-1.314126 -0.83789,-2.266602 0,-0.984697 0.26498,-1.765295 0.79493,-2.341797 0.53352,-0.580072 1.25146,-0.870111 2.1538,-0.870117 0.80924,6e-6 1.4484,0.261399 1.91748,0.78418 0.47265,0.51921 0.70898,1.226403 0.70899,2.121582 m -0.98828,-0.290039 c -0.007,-0.540686 -0.15935,-0.972164 -0.45655,-1.294434 -0.29362,-0.322261 -0.68392,-0.483393 -1.17089,-0.483398 -0.55144,5e-6 -0.99366,0.155766 -1.32666,0.467285 -0.32943,0.311528 -0.51921,0.750167 -0.56934,1.315918 l 3.52344,-0.0054"
               style="fill:#000000;fill-opacity:1;fill-rule:nonzero;stroke:none"
               id="path1115" /></g></g><g
           id="g1117"
           transform="rotate(-90)"><g
             id="g1119"><path
               d="m -368.37341,142.80113 -1.47168,3.99072 h 2.94873 l -1.47705,-3.99072 m -0.61231,-1.06885 h 1.22998 l 3.05616,8.01905 h -1.12793 l -0.73047,-2.05713 h -3.61475 l -0.73047,2.05713 h -1.14404 l 3.06152,-8.01905"
               style="fill:#ffff00;fill-opacity:1;fill-rule:nonzero;stroke:none"
               id="path1121" /></g><g
             id="g1123"><path
               d="m -362.62097,148.84898 v 3.19043 h -0.99365 v -8.30371 h 0.99365 v 0.91309 c 0.20768,-0.35807 0.46907,-0.62304 0.78418,-0.79492 0.31868,-0.17545 0.69824,-0.26318 1.13867,-0.26319 0.73046,1e-5 1.32307,0.29005 1.77783,0.87012 0.45833,0.58008 0.6875,1.34278 0.6875,2.28809 0,0.94531 -0.22917,1.70801 -0.6875,2.28808 -0.45476,0.58008 -1.04737,0.87012 -1.77783,0.87012 -0.44043,0 -0.81999,-0.0859 -1.13867,-0.25781 -0.31511,-0.17546 -0.5765,-0.44222 -0.78418,-0.8003 m 3.3623,-2.10009 c 0,-0.72689 -0.15039,-1.29622 -0.45117,-1.70801 -0.2972,-0.41536 -0.7072,-0.62304 -1.22998,-0.62305 -0.52279,1e-5 -0.93457,0.20769 -1.23535,0.62305 -0.2972,0.41179 -0.4458,0.98112 -0.4458,1.70801 0,0.72689 0.1486,1.29801 0.4458,1.71338 0.30078,0.41178 0.71256,0.61767 1.23535,0.61767 0.52278,0 0.93278,-0.20589 1.22998,-0.61767 0.30078,-0.41537 0.45117,-0.98649 0.45117,-1.71338"
               style="fill:#ffff00;fill-opacity:1;fill-rule:nonzero;stroke:none"
               id="path1125" /></g><g
             id="g1127"><path
               d="m -351.4491,146.49644 v 0.4834 h -4.54394 c 0.043,0.68034 0.24707,1.19955 0.6123,1.55762 0.36882,0.35449 0.88086,0.53174 1.53614,0.53174 0.37955,0 0.74657,-0.0465 1.10107,-0.13965 0.35807,-0.0931 0.71256,-0.23275 1.06348,-0.41895 v 0.93458 c -0.3545,0.15039 -0.71795,0.26497 -1.09034,0.34375 -0.3724,0.0788 -0.75016,0.11816 -1.1333,0.11816 -0.95963,0 -1.72054,-0.2793 -2.28271,-0.83789 -0.5586,-0.55859 -0.83789,-1.31413 -0.83789,-2.2666 0,-0.9847 0.26497,-1.7653 0.79492,-2.3418 0.53353,-0.58007 1.25146,-0.87011 2.15381,-0.87012 0.80924,1e-5 1.4484,0.2614 1.91748,0.78418 0.47265,0.51921 0.70898,1.22641 0.70898,2.12158 m -0.98828,-0.29003 c -0.007,-0.54069 -0.15935,-0.97217 -0.45654,-1.29444 -0.29363,-0.32226 -0.68392,-0.48339 -1.1709,-0.4834 -0.55143,1e-5 -0.99365,0.15577 -1.32666,0.46729 -0.32943,0.31153 -0.51921,0.75017 -0.56934,1.31592 l 3.52344,-0.005"
               style="fill:#ffff00;fill-opacity:1;fill-rule:nonzero;stroke:none"
               id="path1129" /></g><g
             id="g1131"><path
               d="m -346.34119,144.65953 c -0.111,-0.0644 -0.23275,-0.111 -0.36523,-0.13965 -0.12891,-0.0322 -0.27214,-0.0483 -0.42969,-0.0483 -0.5586,1e-5 -0.98828,0.18262 -1.28906,0.54785 -0.2972,0.36166 -0.4458,0.88266 -0.4458,1.56299 v 3.16895 h -0.99365 v -6.01563 h 0.99365 v 0.93457 c 0.20768,-0.36523 0.47802,-0.63557 0.81103,-0.81103 0.33301,-0.17903 0.73763,-0.26855 1.21387,-0.26856 0.068,1e-5 0.14323,0.005 0.22559,0.0161 0.0823,0.007 0.17366,0.0197 0.27392,0.0376 l 0.005,1.01514"
               style="fill:#ffff00;fill-opacity:1;fill-rule:nonzero;stroke:none"
               id="path1133" /></g><g
             id="g1135"><path
               d="m -344.31628,142.02769 v 1.70801 h 2.03564 v 0.76807 h -2.03564 v 3.26562 c -10e-6,0.49057 0.0662,0.80567 0.19873,0.94532 0.13606,0.13965 0.40999,0.20947 0.82177,0.20947 h 1.01514 v 0.82715 h -1.01514 c -0.76269,0 -1.28906,-0.14144 -1.5791,-0.42432 -0.29004,-0.28646 -0.43506,-0.80566 -0.43506,-1.55762 v -3.26562 h -0.72509 v -0.76807 h 0.72509 v -1.70801 h 0.99366"
               style="fill:#ffff00;fill-opacity:1;fill-rule:nonzero;stroke:none"
               id="path1137" /></g><g
             id="g1139"><path
               d="m -341.07751,147.3773 v -3.6416 h 0.98828 v 3.60401 c -1e-5,0.56933 0.111,0.99723 0.333,1.28369 0.22201,0.28288 0.55501,0.42431 0.99903,0.42431 0.53352,0 0.95426,-0.17008 1.2622,-0.51025 0.31152,-0.34017 0.46729,-0.80387 0.46729,-1.39111 v -3.41065 h 0.98828 v 6.01563 h -0.98828 v -0.92383 c -0.23991,0.36523 -0.51921,0.63737 -0.83789,0.81641 -0.31511,0.17545 -0.68213,0.26318 -1.10107,0.26318 -0.69109,0 -1.21566,-0.21484 -1.57374,-0.64453 -0.35807,-0.42969 -0.53711,-1.05811 -0.5371,-1.88526"
               style="fill:#ffff00;fill-opacity:1;fill-rule:nonzero;stroke:none"
               id="path1141" /></g><g
             id="g1143"><path
               d="m -330.5072,144.65953 c -0.11101,-0.0644 -0.23275,-0.111 -0.36524,-0.13965 -0.12891,-0.0322 -0.27214,-0.0483 -0.42968,-0.0483 -0.5586,1e-5 -0.98829,0.18262 -1.28907,0.54785 -0.2972,0.36166 -0.4458,0.88266 -0.4458,1.56299 v 3.16895 h -0.99365 v -6.01563 h 0.99365 v 0.93457 c 0.20768,-0.36523 0.47803,-0.63557 0.81104,-0.81103 0.333,-0.17903 0.73762,-0.26855 1.21387,-0.26856 0.068,1e-5 0.14322,0.005 0.22558,0.0161 0.0823,0.007 0.17366,0.0197 0.27393,0.0376 l 0.005,1.01514"
               style="fill:#ffff00;fill-opacity:1;fill-rule:nonzero;stroke:none"
               id="path1145" /></g><g
             id="g1147"><path
               d="m -324.55066,146.49644 v 0.4834 h -4.54394 c 0.043,0.68034 0.24706,1.19955 0.6123,1.55762 0.36881,0.35449 0.88086,0.53174 1.53613,0.53174 0.37956,0 0.74658,-0.0465 1.10108,-0.13965 0.35806,-0.0931 0.71256,-0.23275 1.06347,-0.41895 v 0.93458 c -0.35449,0.15039 -0.71794,0.26497 -1.09033,0.34375 -0.3724,0.0788 -0.75017,0.11816 -1.1333,0.11816 -0.95964,0 -1.72054,-0.2793 -2.28271,-0.83789 -0.5586,-0.55859 -0.8379,-1.31413 -0.83789,-2.2666 -10e-6,-0.9847 0.26497,-1.7653 0.79492,-2.3418 0.53352,-0.58007 1.25146,-0.87011 2.15381,-0.87012 0.80924,1e-5 1.4484,0.2614 1.91748,0.78418 0.47265,0.51921 0.70897,1.22641 0.70898,2.12158 m -0.98828,-0.29003 c -0.007,-0.54069 -0.15935,-0.97217 -0.45654,-1.29444 -0.29363,-0.32226 -0.68393,-0.48339 -1.1709,-0.4834 -0.55144,1e-5 -0.99366,0.15577 -1.32666,0.46729 -0.32943,0.31153 -0.51921,0.75017 -0.56934,1.31592 l 3.52344,-0.005"
               style="fill:#ffff00;fill-opacity:1;fill-rule:nonzero;stroke:none"
               id="path1149" /></g><g
             id="g1151" /><g
             id="g1153"><path
               d="m -315.59167,143.91295 v 0.93457 c -0.27931,-0.14323 -0.56935,-0.25065 -0.87012,-0.32227 -0.30079,-0.0716 -0.61231,-0.10741 -0.93457,-0.10742 -0.49056,1e-5 -0.85938,0.0752 -1.10645,0.22559 -0.24349,0.15039 -0.36523,0.37598 -0.36523,0.67676 0,0.22917 0.0877,0.40999 0.26318,0.54248 0.17546,0.12891 0.52816,0.25244 1.05811,0.3706 l 0.33838,0.0752 c 0.70181,0.15039 1.19954,0.36344 1.49316,0.63916 0.2972,0.27213 0.4458,0.65348 0.4458,1.14404 0,0.55859 -0.22201,1.00081 -0.66601,1.32666 -0.44044,0.32585 -1.04737,0.48877 -1.82081,0.48877 -0.32226,0 -0.65885,-0.0322 -1.00976,-0.0967 -0.34733,-0.0609 -0.71436,-0.15397 -1.10108,-0.2793 v -1.02051 c 0.36524,0.18978 0.7251,0.33301 1.07959,0.42969 0.35449,0.0931 0.70541,0.13965 1.05274,0.13965 0.46549,0 0.82356,-0.0788 1.07422,-0.23633 0.25064,-0.16113 0.37597,-0.38671 0.37597,-0.67676 0,-0.26855 -0.0913,-0.47444 -0.27392,-0.61767 -0.17904,-0.14323 -0.57471,-0.28109 -1.18701,-0.41358 l -0.34375,-0.0806 c -0.61231,-0.1289 -1.05453,-0.32584 -1.32666,-0.59082 -0.27214,-0.26855 -0.40821,-0.63558 -0.40821,-1.10108 0,-0.56575 0.20052,-1.00259 0.60157,-1.31054 0.40104,-0.30794 0.97037,-0.46191 1.708,-0.46192 0.36523,1e-5 0.70898,0.0269 1.03125,0.0806 0.32226,0.0537 0.61947,0.13428 0.89161,0.2417"
               style="fill:#ffff00;fill-opacity:1;fill-rule:nonzero;stroke:none"
               id="path1155" /></g><g
             id="g1157"><path
               d="m -312.71277,142.02769 v 1.70801 h 2.03565 v 0.76807 h -2.03565 v 3.26562 c 0,0.49057 0.0662,0.80567 0.19873,0.94532 0.13607,0.13965 0.40999,0.20947 0.82178,0.20947 h 1.01514 v 0.82715 h -1.01514 c -0.7627,0 -1.28906,-0.14144 -1.5791,-0.42432 -0.29004,-0.28646 -0.43506,-0.80566 -0.43506,-1.55762 v -3.26562 h -0.7251 v -0.76807 h 0.7251 v -1.70801 h 0.99365"
               style="fill:#ffff00;fill-opacity:1;fill-rule:nonzero;stroke:none"
               id="path1159" /></g><g
             id="g1161"><path
               d="m -307.04089,144.42857 c -0.52995,1e-5 -0.9489,0.20769 -1.25684,0.62305 -0.30794,0.41179 -0.46192,0.97754 -0.46191,1.69727 -1e-5,0.71972 0.15218,1.28727 0.45654,1.70263 0.30794,0.41179 0.72867,0.61768 1.26221,0.61768 0.52636,0 0.94351,-0.20768 1.25146,-0.62305 0.30794,-0.41536 0.46191,-0.98112 0.46192,-1.69726 -10e-6,-0.71257 -0.15398,-1.27653 -0.46192,-1.6919 -0.30795,-0.41894 -0.7251,-0.62841 -1.25146,-0.62842 m 0,-0.83789 c 0.85937,1e-5 1.53433,0.27931 2.0249,0.83789 0.49055,0.5586 0.73583,1.33204 0.73584,2.32032 -1e-5,0.9847 -0.24529,1.75814 -0.73584,2.32031 -0.49057,0.55859 -1.16553,0.83789 -2.0249,0.83789 -0.86296,0 -1.53972,-0.2793 -2.03028,-0.83789 -0.48698,-0.56217 -0.73047,-1.33561 -0.73047,-2.32031 0,-0.98828 0.24349,-1.76172 0.73047,-2.32032 0.49056,-0.55858 1.16732,-0.83788 2.03028,-0.83789"
               style="fill:#ffff00;fill-opacity:1;fill-rule:nonzero;stroke:none"
               id="path1163" /></g><g
             id="g1165"><path
               d="m -301.69128,148.84898 v 3.19043 h -0.99366 v -8.30371 h 0.99366 v 0.91309 c 0.20768,-0.35807 0.46907,-0.62304 0.78418,-0.79492 0.31868,-0.17545 0.69823,-0.26318 1.13867,-0.26319 0.73046,1e-5 1.32307,0.29005 1.77783,0.87012 0.45833,0.58008 0.68749,1.34278 0.6875,2.28809 -1e-5,0.94531 -0.22917,1.70801 -0.6875,2.28808 -0.45476,0.58008 -1.04737,0.87012 -1.77783,0.87012 -0.44044,0 -0.81999,-0.0859 -1.13867,-0.25781 -0.31511,-0.17546 -0.5765,-0.44222 -0.78418,-0.8003 m 3.3623,-2.10009 c 0,-0.72689 -0.1504,-1.29622 -0.45117,-1.70801 -0.29721,-0.41536 -0.7072,-0.62304 -1.22998,-0.62305 -0.52279,1e-5 -0.93457,0.20769 -1.23535,0.62305 -0.29721,0.41179 -0.44581,0.98112 -0.4458,1.70801 -10e-6,0.72689 0.14859,1.29801 0.4458,1.71338 0.30078,0.41178 0.71256,0.61767 1.23535,0.61767 0.52278,0 0.93277,-0.20589 1.22998,-0.61767 0.30077,-0.41537 0.45117,-0.98649 0.45117,-1.71338"
               style="fill:#ffff00;fill-opacity:1;fill-rule:nonzero;stroke:none"
               id="path1167" /></g></g><g
           id="g1169"><path
             d="m 461.28516,243.65848 v 1.0581 c -0.41179,-0.19693 -0.8003,-0.34374 -1.16553,-0.44043 -0.36524,-0.0967 -0.71794,-0.14501 -1.05811,-0.14502 -0.59082,10e-6 -1.04736,0.11459 -1.36963,0.34375 -0.31868,0.22918 -0.47802,0.55502 -0.47802,0.97754 0,0.3545 0.10563,0.62306 0.31689,0.80567 0.21484,0.17904 0.61947,0.32406 1.21387,0.43506 l 0.65527,0.13427 c 0.80924,0.15398 1.40543,0.42611 1.78858,0.81641 0.38671,0.38672 0.58007,0.90593 0.58007,1.55762 0,0.77702 -0.26139,1.36605 -0.78418,1.76709 -0.51921,0.40104 -1.2819,0.60156 -2.28808,0.60156 -0.37956,0 -0.78418,-0.043 -1.21387,-0.12891 -0.42611,-0.0859 -0.86833,-0.21305 -1.32666,-0.38135 v -1.11718 c 0.44043,0.24707 0.87191,0.43327 1.29444,0.55859 0.42252,0.12533 0.83788,0.18799 1.24609,0.18799 0.61946,0 1.09749,-0.12174 1.43408,-0.36523 0.33658,-0.24349 0.50488,-0.59082 0.50488,-1.042 0,-0.39387 -0.12175,-0.70182 -0.36523,-0.92383 -0.23991,-0.222 -0.63558,-0.3885 -1.18701,-0.49951 l -0.66065,-0.1289 c -0.80924,-0.16113 -1.39469,-0.41357 -1.75634,-0.75733 -0.36166,-0.34374 -0.54249,-0.82177 -0.54248,-1.43408 -10e-6,-0.70898 0.24885,-1.26757 0.74658,-1.67578 0.5013,-0.4082 1.19059,-0.6123 2.06787,-0.61231 0.37597,1e-5 0.75911,0.034 1.14941,0.10206 0.3903,0.068 0.78955,0.17009 1.19776,0.30615"
             style="fill:#000000;fill-opacity:1;fill-rule:nonzero;stroke:none"
             id="path1171" /></g><g
           id="g1173"><path
             d="m 466.15137,248.39041 c -0.79851,0 -1.35173,0.0913 -1.65967,0.27393 -0.30795,0.18262 -0.46192,0.49414 -0.46191,0.93457 -10e-6,0.35091 0.11458,0.63021 0.34375,0.83789 0.23274,0.2041 0.54784,0.30615 0.94531,0.30615 0.54785,0 0.98648,-0.19336 1.31592,-0.58008 0.333,-0.3903 0.4995,-0.90771 0.49951,-1.55224 v -0.22022 h -0.98291 m 1.97119,-0.4082 v 3.43213 h -0.98828 v -0.91309 c -0.22559,0.36524 -0.50668,0.63558 -0.84326,0.81104 -0.3366,0.17187 -0.74838,0.25781 -1.23536,0.25781 -0.61588,0 -1.10644,-0.17188 -1.47168,-0.51563 -0.36165,-0.34733 -0.54248,-0.81103 -0.54248,-1.39111 0,-0.67675 0.22559,-1.18701 0.67676,-1.53076 0.45475,-0.34375 1.13151,-0.51562 2.03028,-0.51563 h 1.38574 v -0.0967 c -10e-6,-0.45474 -0.1504,-0.80566 -0.45117,-1.05273 -0.29721,-0.25065 -0.71615,-0.37597 -1.25684,-0.37598 -0.34375,1e-5 -0.67855,0.0412 -1.0044,0.12354 -0.32584,0.0824 -0.63916,0.2059 -0.93994,0.3706 v -0.91308 c 0.36166,-0.13964 0.71257,-0.24349 1.05274,-0.31153 0.34016,-0.0716 0.67138,-0.10741 0.99365,-0.10742 0.87011,1e-5 1.52002,0.22559 1.94971,0.67676 0.42968,0.45118 0.64452,1.1351 0.64453,2.05176"
             style="fill:#000000;fill-opacity:1;fill-rule:nonzero;stroke:none"
             id="path1175" /></g><g
           id="g1177"><path
             d="m 474.84717,246.5535 c 0.24706,-0.44401 0.54247,-0.77164 0.88623,-0.98291 0.34374,-0.21126 0.74836,-0.31689 1.21387,-0.3169 0.62661,1e-5 1.11001,0.22022 1.45019,0.66065 0.34016,0.43685 0.51025,1.0599 0.51025,1.86914 v 3.63086 h -0.99365 v -3.59864 c -1e-5,-0.57649 -0.10206,-1.00439 -0.30615,-1.28369 -0.20411,-0.27929 -0.51563,-0.41894 -0.93457,-0.41894 -0.51205,0 -0.91667,0.17009 -1.21387,0.51025 -0.2972,0.34018 -0.4458,0.80388 -0.4458,1.39111 v 3.39991 h -0.99365 v -3.59864 c -10e-6,-0.58007 -0.10206,-1.00797 -0.30615,-1.28369 -0.20411,-0.27929 -0.51921,-0.41894 -0.94532,-0.41894 -0.50488,0 -0.90592,0.17188 -1.20312,0.51562 -0.2972,0.34018 -0.4458,0.80209 -0.4458,1.38574 v 3.39991 h -0.99365 v -6.01563 h 0.99365 v 0.93457 c 0.22558,-0.36881 0.49593,-0.64094 0.81103,-0.8164 0.31511,-0.17545 0.68929,-0.26318 1.12256,-0.26319 0.43685,1e-5 0.80745,0.11101 1.11182,0.33301 0.30794,0.22201 0.53531,0.54428 0.68213,0.9668"
             style="fill:#000000;fill-opacity:1;fill-rule:nonzero;stroke:none"
             id="path1179" /></g><g
           id="g1181"><path
             d="m 481.84033,250.51199 v 3.19043 h -0.99365 v -8.30371 h 0.99365 v 0.91309 c 0.20768,-0.35807 0.46908,-0.62304 0.78418,-0.79492 0.31868,-0.17545 0.69824,-0.26318 1.13867,-0.26319 0.73047,1e-5 1.32308,0.29005 1.77784,0.87012 0.45832,0.58008 0.68749,1.34278 0.6875,2.28809 -10e-6,0.94531 -0.22918,1.708 -0.6875,2.28808 -0.45476,0.58008 -1.04737,0.87012 -1.77784,0.87012 -0.44043,0 -0.81999,-0.0859 -1.13867,-0.25781 -0.3151,-0.17546 -0.5765,-0.44222 -0.78418,-0.8003 m 3.36231,-2.10009 c -10e-6,-0.72689 -0.1504,-1.29622 -0.45118,-1.70801 -0.2972,-0.41536 -0.70719,-0.62304 -1.22998,-0.62305 -0.52279,1e-5 -0.93457,0.20769 -1.23535,0.62305 -0.2972,0.41179 -0.4458,0.98112 -0.4458,1.70801 0,0.72689 0.1486,1.29801 0.4458,1.71337 0.30078,0.41179 0.71256,0.61768 1.23535,0.61768 0.52279,0 0.93278,-0.20589 1.22998,-0.61768 0.30078,-0.41536 0.45117,-0.98648 0.45118,-1.71337"
             style="fill:#000000;fill-opacity:1;fill-rule:nonzero;stroke:none"
             id="path1183" /></g><g
           id="g1185"><path
             d="m 487.8667,243.05692 h 0.98828 v 8.35742 h -0.98828 v -8.35742"
             style="fill:#000000;fill-opacity:1;fill-rule:nonzero;stroke:none"
             id="path1187" /></g><g
           id="g1189"><path
             d="m 496.06299,248.15945 v 0.4834 h -4.54395 c 0.043,0.68034 0.24707,1.19955 0.61231,1.55762 0.36881,0.35449 0.88085,0.53174 1.53613,0.53174 0.37955,0 0.74658,-0.0465 1.10107,-0.13965 0.35807,-0.0931 0.71256,-0.23275 1.06348,-0.41895 v 0.93457 c -0.3545,0.1504 -0.71794,0.26498 -1.09033,0.34375 -0.3724,0.0788 -0.75017,0.11817 -1.1333,0.11817 -0.95964,0 -1.72054,-0.2793 -2.28272,-0.83789 -0.55859,-0.55859 -0.83789,-1.31413 -0.83789,-2.2666 0,-0.9847 0.26498,-1.7653 0.79492,-2.3418 0.53353,-0.58007 1.25147,-0.87011 2.15381,-0.87012 0.80924,1e-5 1.4484,0.2614 1.91748,0.78418 0.47265,0.51921 0.70898,1.22641 0.70899,2.12158 m -0.98828,-0.29003 c -0.007,-0.54069 -0.15935,-0.97217 -0.45655,-1.29444 -0.29362,-0.32226 -0.68392,-0.48339 -1.17089,-0.4834 -0.55144,1e-5 -0.99366,0.15577 -1.32666,0.46729 -0.32943,0.31153 -0.51921,0.75017 -0.56934,1.31592 l 3.52344,-0.005"
             style="fill:#000000;fill-opacity:1;fill-rule:nonzero;stroke:none"
             id="path1191" /></g><g
           id="g1193"><path
             d="M 556.08435,376.95416 V 383.19 h 1.31055 c 1.10644,0 1.91568,-0.25065 2.42773,-0.75195 0.51562,-0.5013 0.77343,-1.29264 0.77344,-2.37402 -1e-5,-1.07422 -0.25782,-1.86019 -0.77344,-2.35791 -0.51205,-0.5013 -1.32129,-0.75195 -2.42773,-0.75196 h -1.31055 m -1.08496,-0.8916 h 2.229 c 1.55404,10e-6 2.6945,0.32406 3.42139,0.97217 0.72688,0.64454 1.09032,1.6543 1.09033,3.0293 -10e-6,1.38216 -0.36524,2.3973 -1.0957,3.04541 -0.73048,0.64811 -1.86915,0.97216 -3.41602,0.97216 h -2.229 v -8.01904"
             style="fill:#000000;fill-opacity:1;fill-rule:nonzero;stroke:none"
             id="path1195" /></g><g
           id="g1197"><path
             d="m 568.56677,380.82672 v 0.4834 h -4.54394 c 0.043,0.68034 0.24707,1.19955 0.6123,1.55762 0.36881,0.35449 0.88086,0.53174 1.53613,0.53174 0.37956,0 0.74658,-0.0465 1.10108,-0.13965 0.35807,-0.0931 0.71256,-0.23275 1.06348,-0.41895 v 0.93457 c -0.3545,0.15039 -0.71795,0.26498 -1.09034,0.34375 -0.3724,0.0788 -0.75016,0.11817 -1.1333,0.11817 -0.95964,0 -1.72054,-0.2793 -2.28271,-0.83789 -0.5586,-0.5586 -0.83789,-1.31413 -0.83789,-2.26661 0,-0.98469 0.26497,-1.76529 0.79492,-2.34179 0.53353,-0.58008 1.25146,-0.87011 2.15381,-0.87012 0.80924,1e-5 1.4484,0.2614 1.91748,0.78418 0.47265,0.51921 0.70898,1.2264 0.70898,2.12158 m -0.98828,-0.29004 c -0.007,-0.54068 -0.15935,-0.97216 -0.45654,-1.29443 -0.29363,-0.32226 -0.68393,-0.48339 -1.1709,-0.4834 -0.55144,1e-5 -0.99366,0.15577 -1.32666,0.46729 -0.32943,0.31152 -0.51921,0.75016 -0.56934,1.31591 l 3.52344,-0.005"
             style="fill:#000000;fill-opacity:1;fill-rule:nonzero;stroke:none"
             id="path1199" /></g><g
           id="g1201"><path
             d="m 571.16638,376.35797 v 1.70801 h 2.03565 v 0.76807 h -2.03565 v 3.26562 c 0,0.49056 0.0662,0.80567 0.19873,0.94531 0.13607,0.13965 0.40999,0.20948 0.82178,0.20948 h 1.01514 v 0.82714 h -1.01514 c -0.7627,0 -1.28906,-0.14143 -1.5791,-0.42431 -0.29004,-0.28646 -0.43506,-0.80567 -0.43506,-1.55762 v -3.26562 h -0.7251 v -0.76807 h 0.7251 v -1.70801 h 0.99365"
             style="fill:#000000;fill-opacity:1;fill-rule:nonzero;stroke:none"
             id="path1203" /></g><g
           id="g1205"><path
             d="m 579.65271,380.82672 v 0.4834 h -4.54395 c 0.043,0.68034 0.24707,1.19955 0.61231,1.55762 0.36881,0.35449 0.88086,0.53174 1.53613,0.53174 0.37956,0 0.74658,-0.0465 1.10108,-0.13965 0.35806,-0.0931 0.71256,-0.23275 1.06347,-0.41895 v 0.93457 c -0.35449,0.15039 -0.71794,0.26498 -1.09033,0.34375 -0.3724,0.0788 -0.75017,0.11817 -1.1333,0.11817 -0.95964,0 -1.72054,-0.2793 -2.28271,-0.83789 -0.5586,-0.5586 -0.8379,-1.31413 -0.8379,-2.26661 0,-0.98469 0.26498,-1.76529 0.79493,-2.34179 0.53352,-0.58008 1.25146,-0.87011 2.15381,-0.87012 0.80924,1e-5 1.4484,0.2614 1.91748,0.78418 0.47265,0.51921 0.70897,1.2264 0.70898,2.12158 m -0.98828,-0.29004 c -0.007,-0.54068 -0.15935,-0.97216 -0.45654,-1.29443 -0.29363,-0.32226 -0.68393,-0.48339 -1.1709,-0.4834 -0.55144,1e-5 -0.99366,0.15577 -1.32666,0.46729 -0.32943,0.31152 -0.51921,0.75016 -0.56934,1.31591 l 3.52344,-0.005"
             style="fill:#000000;fill-opacity:1;fill-rule:nonzero;stroke:none"
             id="path1207" /></g><g
           id="g1209"><path
             d="m 585.60388,378.29694 v 0.92382 c -0.2793,-0.15396 -0.56039,-0.26855 -0.84326,-0.34375 -0.2793,-0.0788 -0.56218,-0.11815 -0.84863,-0.11816 -0.64096,1e-5 -1.13868,0.20411 -1.49317,0.6123 -0.35449,0.40463 -0.53174,0.97397 -0.53174,1.70801 0,0.73405 0.17725,1.30518 0.53174,1.71338 0.35449,0.40462 0.85221,0.60694 1.49317,0.60694 0.28645,0 0.56933,-0.0376 0.84863,-0.1128 0.28287,-0.0788 0.56396,-0.19515 0.84326,-0.34912 v 0.91309 c -0.27572,0.1289 -0.56218,0.22558 -0.85937,0.29004 -0.29363,0.0644 -0.60694,0.0967 -0.93994,0.0967 -0.90593,0 -1.62566,-0.28467 -2.15918,-0.85401 -0.53353,-0.56933 -0.8003,-1.3374 -0.8003,-2.3042 0,-0.98111 0.26856,-1.75276 0.80567,-2.31494 0.54068,-0.56217 1.2801,-0.84325 2.21826,-0.84326 0.30436,1e-5 0.60156,0.0322 0.8916,0.0967 0.29003,0.0609 0.57112,0.15398 0.84326,0.2793"
             style="fill:#000000;fill-opacity:1;fill-rule:nonzero;stroke:none"
             id="path1211" /></g><g
           id="g1213"><path
             d="m 588.31091,376.35797 v 1.70801 h 2.03565 v 0.76807 h -2.03565 v 3.26562 c 0,0.49056 0.0662,0.80567 0.19873,0.94531 0.13607,0.13965 0.40999,0.20948 0.82178,0.20948 h 1.01514 v 0.82714 h -1.01514 c -0.7627,0 -1.28906,-0.14143 -1.5791,-0.42431 -0.29004,-0.28646 -0.43506,-0.80567 -0.43506,-1.55762 v -3.26562 h -0.7251 v -0.76807 h 0.7251 v -1.70801 h 0.99365"
             style="fill:#000000;fill-opacity:1;fill-rule:nonzero;stroke:none"
             id="path1215" /></g><g
           id="g1217"><path
             d="m 593.98279,378.75885 c -0.52995,1e-5 -0.9489,0.20769 -1.25684,0.62305 -0.30794,0.41179 -0.46191,0.97754 -0.46191,1.69726 0,0.71973 0.15218,1.28728 0.45654,1.70264 0.30794,0.41178 0.72868,0.61768 1.26221,0.61768 0.52636,0 0.94352,-0.20769 1.25146,-0.62305 0.30794,-0.41536 0.46191,-0.98112 0.46192,-1.69727 -1e-5,-0.71256 -0.15398,-1.27652 -0.46192,-1.69189 -0.30794,-0.41894 -0.7251,-0.62841 -1.25146,-0.62842 m 0,-0.83789 c 0.85937,1e-5 1.53434,0.2793 2.0249,0.83789 0.49055,0.5586 0.73583,1.33204 0.73584,2.32031 -10e-6,0.98471 -0.24529,1.75814 -0.73584,2.32032 -0.49056,0.55859 -1.16553,0.83789 -2.0249,0.83789 -0.86296,0 -1.53972,-0.2793 -2.03028,-0.83789 -0.48698,-0.56218 -0.73046,-1.33561 -0.73046,-2.32032 0,-0.98827 0.24348,-1.76171 0.73046,-2.32031 0.49056,-0.55859 1.16732,-0.83788 2.03028,-0.83789"
             style="fill:#000000;fill-opacity:1;fill-rule:nonzero;stroke:none"
             id="path1219" /></g><g
           id="g1221"><path
             d="m 601.86218,378.98981 c -0.111,-0.0644 -0.23275,-0.111 -0.36523,-0.13965 -0.12891,-0.0322 -0.27214,-0.0483 -0.42969,-0.0483 -0.5586,0 -0.98828,0.18262 -1.28906,0.54785 -0.2972,0.36166 -0.4458,0.88265 -0.4458,1.56299 v 3.16894 h -0.99365 v -6.01562 h 0.99365 v 0.93457 c 0.20768,-0.36523 0.47802,-0.63557 0.81103,-0.81104 0.33301,-0.17903 0.73763,-0.26854 1.21387,-0.26855 0.068,1e-5 0.14322,0.005 0.22559,0.0161 0.0824,0.007 0.17366,0.0197 0.27392,0.0376 l 0.005,1.01514"
             style="fill:#000000;fill-opacity:1;fill-rule:nonzero;stroke:none"
             id="path1223" /></g><g
           id="g1225"><path
             d="m 574.7874,367.7043 c 0,-26.57481 17.71653,-35.43308 35.43307,-44.29134"
             style="fill:none;stroke:#000000;stroke-width:1;stroke-linecap:butt;stroke-linejoin:miter;stroke-miterlimit:4;stroke-dasharray:none;stroke-opacity:1"
             id="path1227" /></g><g
           id="g1229"
           transform="matrix(-0.35777096,0.17888528,-0.17888528,-0.35777096,606.64276,325.20181)"><g
             id="g1231"><path
               d="M 0,0 5,-5 -12.5,0 5,5 Z"
               style="fill:#000000;fill-opacity:1;fill-rule:evenodd;stroke:none"
               id="path1233" /></g><g
             id="g1235"><path
               d="M 0,0 5,-5 -12.5,0 5,5 Z"
               style="fill:none;stroke:#000000;stroke-width:1.25;stroke-linecap:butt;stroke-linejoin:miter;stroke-miterlimit:4;stroke-dasharray:none;stroke-opacity:1"
               id="path1237" /></g></g></g></g></g></svg>
